<svg width="36" height="36" viewBox="0 0 36 36" fill="none" xmlns="http://www.w3.org/2000/svg">
<circle cx="18" cy="18" r="17.5" stroke="#3073C2"/>
<path d="M23.4195 21.3201H22.7056C23.002 20.8472 23.2063 20.3231 23.3069 19.7745L23.4693 18.8892H22.5692H18.9112V17.3092L25.2061 17.3084C25.2358 17.5989 25.2504 17.8909 25.25 18.1831V18.1843C25.25 20.4312 24.4346 22.2775 23.0657 23.5121L22.9601 23.6074C21.7707 24.6352 20.1383 25.25 18.1612 25.25C16.1908 25.25 14.3041 24.4826 12.9154 23.1213C11.5271 21.7605 10.75 19.9181 10.75 18.0003C10.75 16.0824 11.5271 14.24 12.9154 12.8792C14.3041 11.5179 16.1908 10.7505 18.1612 10.7505V10.7506L18.1698 10.7505C19.7378 10.7325 21.2581 11.2229 22.5001 12.131L21.2425 13.3637C20.3466 12.7352 19.2656 12.4005 18.1554 12.4164C15.6914 12.419 13.6115 14.0461 12.869 16.2276C12.4732 17.3788 12.4734 18.6261 12.8695 19.7772L13.0436 20.2832H13.0741C13.9498 22.2031 15.8923 23.5841 18.1642 23.5841C19.3889 23.5841 20.4834 23.2763 21.3569 22.6943L23.4195 21.3201ZM26 18.1843C26 20.2128 25.3835 21.9802 24.2839 23.3191H23.57H23.568V24.0668L26 18.1843Z" fill="#3073C2" stroke="#3073C2" stroke-width="1.5"/>
</svg>
