<svg width="25" height="24" viewBox="0 0 25 24" fill="none" xmlns="http://www.w3.org/2000/svg">
<path d="M3.23907 12.9579C2.85963 10.3208 2.66991 9.00229 3.21037 7.87495C3.75083 6.7476 4.90119 6.06234 7.20191 4.69181L8.58675 3.86687C10.676 2.62229 11.7207 2 12.875 2C14.0293 2 15.074 2.62229 17.1632 3.86687L18.5481 4.69181C20.8488 6.06234 21.9992 6.7476 22.5396 7.87495C23.0801 9.00229 22.8904 10.3208 22.5109 12.9579L22.2322 14.8952C21.7447 18.2827 21.501 19.9764 20.326 20.9882C19.1509 22 17.4276 22 13.9811 22H11.7689C8.32237 22 6.59909 22 5.42403 20.9882C4.24896 19.9764 4.00525 18.2827 3.51784 14.8952L3.23907 12.9579Z" stroke="black" stroke-width="1.5"/>
<path d="M14.875 15C15.4273 15 15.8906 15.4597 15.7102 15.9817C15.6907 16.0381 15.6695 16.094 15.6466 16.1494C15.4959 16.5137 15.2749 16.8448 14.9963 17.1237C14.7177 17.4026 14.387 17.6239 14.023 17.7748C13.6591 17.9257 13.269 18.0034 12.875 18.0034C12.481 18.0034 12.0909 17.9257 11.7269 17.7748C11.363 17.6239 11.0323 17.4026 10.7537 17.1237C10.4751 16.8448 10.2541 16.5137 10.1034 16.1494C10.0805 16.094 10.0593 16.0381 10.0398 15.9817C9.85944 15.4597 10.3227 15 10.875 15H14.875Z" fill="black"/>
</svg>
