<svg width="36" height="36" viewBox="0 0 36 36" fill="none" xmlns="http://www.w3.org/2000/svg">
<circle cx="18" cy="18" r="17.5" stroke="#3073C2"/>
<path d="M21.8713 12.7687C23.1203 12.8632 24.0659 13.2683 24.7435 13.957C23.2958 14.9973 22.7184 16.5116 22.8844 17.9619C23.0488 19.3978 23.9392 20.7396 25.3516 21.4587C24.7897 22.7678 24.0796 23.991 22.9972 24.9086L23.071 24.9956L22.9927 24.9118C22.5609 25.3087 22.1314 25.461 21.7035 25.4805C21.2598 25.5008 20.784 25.3796 20.2732 25.168L20.2733 25.168L20.2676 25.1658C19.0009 24.659 17.8137 24.6374 16.48 25.1651L16.48 25.165L16.475 25.1671C15.7528 25.4619 15.2666 25.5381 14.8857 25.488C14.5187 25.4397 14.1828 25.2653 13.775 24.9122C11.3022 22.4905 10.2809 19.4693 10.5389 17.0671C10.6677 15.8675 11.1123 14.8377 11.8333 14.0958C12.5453 13.3633 13.557 12.8798 14.8912 12.8106C15.5204 12.845 16.0627 13.0089 16.5741 13.1862C16.6461 13.2111 16.7193 13.2372 16.7936 13.2636C17.2197 13.4151 17.6778 13.578 18.105 13.6087L18.1708 13.6134L18.2355 13.601C18.7194 13.5077 19.2096 13.3466 19.6646 13.1971C19.8281 13.1433 19.9872 13.0911 20.1397 13.044C20.7434 12.8577 21.3015 12.7305 21.8713 12.7687ZM19.1323 11.59C18.9151 11.6768 18.7139 11.7303 18.5358 11.7552C18.6562 10.2176 19.9193 8.92484 21.4978 8.5772C21.4396 9.45357 20.9747 10.2338 20.3385 10.818C19.9609 11.1646 19.5364 11.4284 19.1323 11.59Z" fill="#3073C2" stroke="#3073C2"/>
</svg>
