<svg width="25" height="24" viewBox="0 0 25 24" fill="none" xmlns="http://www.w3.org/2000/svg">
<path d="M3.125 6.5C3.125 4.61438 3.125 3.67157 3.71079 3.08579C4.29657 2.5 5.23938 2.5 7.125 2.5C9.01062 2.5 9.95343 2.5 10.5392 3.08579C11.125 3.67157 11.125 4.61438 11.125 6.5C11.125 8.38562 11.125 9.32843 10.5392 9.91421C9.95343 10.5 9.01062 10.5 7.125 10.5C5.23938 10.5 4.29657 10.5 3.71079 9.91421C3.125 9.32843 3.125 8.38562 3.125 6.5Z" fill="#8C8C8C" stroke="black" stroke-width="1.5"/>
<path d="M14.125 17.5C14.125 15.6144 14.125 14.6716 14.7108 14.0858C15.2966 13.5 16.2394 13.5 18.125 13.5C20.0106 13.5 20.9534 13.5 21.5392 14.0858C22.125 14.6716 22.125 15.6144 22.125 17.5C22.125 19.3856 22.125 20.3284 21.5392 20.9142C20.9534 21.5 20.0106 21.5 18.125 21.5C16.2394 21.5 15.2966 21.5 14.7108 20.9142C14.125 20.3284 14.125 19.3856 14.125 17.5Z" fill="#8C8C8C" stroke="black" stroke-width="1.5"/>
<path d="M3.125 17.5C3.125 15.6144 3.125 14.6716 3.71079 14.0858C4.29657 13.5 5.23938 13.5 7.125 13.5C9.01062 13.5 9.95343 13.5 10.5392 14.0858C11.125 14.6716 11.125 15.6144 11.125 17.5C11.125 19.3856 11.125 20.3284 10.5392 20.9142C9.95343 21.5 9.01062 21.5 7.125 21.5C5.23938 21.5 4.29657 21.5 3.71079 20.9142C3.125 20.3284 3.125 19.3856 3.125 17.5Z" fill="#8C8C8C" stroke="black" stroke-width="1.5"/>
<path d="M14.125 6.5C14.125 4.61438 14.125 3.67157 14.7108 3.08579C15.2966 2.5 16.2394 2.5 18.125 2.5C20.0106 2.5 20.9534 2.5 21.5392 3.08579C22.125 3.67157 22.125 4.61438 22.125 6.5C22.125 8.38562 22.125 9.32843 21.5392 9.91421C20.9534 10.5 20.0106 10.5 18.125 10.5C16.2394 10.5 15.2966 10.5 14.7108 9.91421C14.125 9.32843 14.125 8.38562 14.125 6.5Z" fill="#8C8C8C" stroke="black" stroke-width="1.5"/>
</svg>
