<svg width="25" height="24" viewBox="0 0 25 24" fill="none" xmlns="http://www.w3.org/2000/svg">
<circle cx="12.375" cy="12" r="10" fill="#8C8C8C" stroke="black" stroke-width="1.5"/>
<path d="M13.399 14.5601C11.0892 15.484 9.9343 15.946 9.27464 15.4977C9.11824 15.3914 8.98334 15.2565 8.87706 15.1001C8.4288 14.4405 8.89075 13.2856 9.81467 10.9758C10.0117 10.4831 10.1103 10.2368 10.2797 10.0435C10.3229 9.99429 10.3693 9.94792 10.4185 9.90474C10.6118 9.73527 10.8581 9.63673 11.3508 9.43966C13.6606 8.51575 14.8155 8.0538 15.4751 8.50206C15.6315 8.60834 15.7664 8.74324 15.8727 8.89964C16.321 9.5593 15.859 10.7142 14.9351 13.024C14.738 13.5166 14.6395 13.763 14.47 13.9562C14.4268 14.0055 14.3805 14.0518 14.3312 14.095C14.138 14.2645 13.8916 14.363 13.399 14.5601Z" stroke="black" stroke-width="1.5"/>
</svg>
