<svg width="118" height="138" viewBox="0 0 118 138" fill="none" xmlns="http://www.w3.org/2000/svg">
<path d="M98.3901 38.708C98.3901 60.0858 81.0795 77.416 59.7259 77.416C38.3723 77.416 21.0618 60.0858 21.0618 38.708C21.0618 17.3302 38.3723 0 59.7259 0C81.0795 0 98.3901 17.3302 98.3901 38.708Z" fill="white"/>
<path d="M80.8619 35.2712C80.8619 46.7754 59.9833 79.8267 59.9833 79.8267C59.9833 79.8267 39.1047 47.6115 39.1047 35.2712C39.1047 21.7263 48.0626 13.2541 59.9833 13.2541C71.904 13.2541 80.8619 21.7263 80.8619 35.2712Z" fill="#3073C2"/>
<path d="M66.0781 35.6506C66.0781 36.437 65.9234 37.2157 65.6228 37.9422C65.3222 38.6687 64.8817 39.3288 64.3263 39.8848C63.7708 40.4408 63.1115 40.8819 62.3858 41.1828C61.6601 41.4838 60.8824 41.6387 60.0969 41.6387C59.3114 41.6387 58.5337 41.4838 57.808 41.1828C57.0823 40.8819 56.423 40.4408 55.8675 39.8848C55.3121 39.3288 54.8716 38.6687 54.571 37.9422C54.2704 37.2157 54.1157 36.437 54.1157 35.6506H66.0781Z" fill="white"/>
<path d="M0 120.425C0 115.892 1.62304 112.035 4.86913 108.855C8.11521 105.674 12.0707 104.084 16.7356 104.084C21.422 104.084 25.399 105.685 28.6666 108.887C31.8912 112.088 33.5035 116.021 33.5035 120.683C33.5035 125.389 31.8804 129.332 28.6343 132.512C25.3668 135.671 21.3575 137.25 16.6066 137.25C11.8987 137.25 7.95398 135.638 4.77239 132.415C1.5908 129.235 0 125.239 0 120.425ZM7.41655 120.554C7.41655 123.692 8.25495 126.173 9.93173 128C11.6515 129.848 13.9195 130.772 16.7356 130.772C19.5732 130.772 21.8412 129.858 23.5395 128.032C25.2378 126.206 26.0869 123.767 26.0869 120.716C26.0869 117.664 25.2378 115.226 23.5395 113.399C21.8197 111.551 19.5518 110.627 16.7356 110.627C13.9625 110.627 11.716 111.551 9.99622 113.399C8.27644 115.247 7.41655 117.632 7.41655 120.554Z" fill="white"/>
<path d="M41.2102 104.955H48.4656V107.759C49.7984 106.362 50.9807 105.406 52.0126 104.89C53.066 104.353 54.3128 104.084 55.7531 104.084C57.6664 104.084 59.6656 104.708 61.7509 105.954L58.4295 112.593C57.0537 111.605 55.7101 111.111 54.3988 111.111C50.4433 111.111 48.4656 114.097 48.4656 120.071V136.348H41.2102V104.955Z" fill="white"/>
<path d="M75.7778 111.723V136.348H68.5225V111.723H65.4269V104.955H68.5225V93.4482H75.7778V104.955H81.4208V111.723H75.7778Z" fill="white"/>
<path d="M110.087 104.955H117.375V136.348H110.087V133.06C107.099 135.853 103.885 137.25 100.446 137.25C96.1035 137.25 92.5134 135.681 89.6758 132.544C86.8597 129.343 85.4516 125.346 85.4516 120.554C85.4516 115.849 86.8597 111.927 89.6758 108.79C92.4919 105.653 96.0175 104.084 100.252 104.084C103.907 104.084 107.185 105.588 110.087 108.597V104.955ZM92.8681 120.554C92.8681 123.563 93.6743 126.012 95.2866 127.903C96.9419 129.815 99.0271 130.772 101.542 130.772C104.229 130.772 106.401 129.848 108.056 128C109.711 126.087 110.539 123.659 110.539 120.716C110.539 117.772 109.711 115.344 108.056 113.431C106.401 111.562 104.251 110.627 101.607 110.627C99.1131 110.627 97.0278 111.573 95.3511 113.464C93.6958 115.376 92.8681 117.74 92.8681 120.554Z" fill="white"/>
</svg>
