<svg width="36" height="36" viewBox="0 0 36 36" fill="none" xmlns="http://www.w3.org/2000/svg">
<path d="M36 18C36 27.9411 27.9411 36 18 36C8.05887 36 0 27.9411 0 18C0 8.05887 8.05887 0 18 0C27.9411 0 36 8.05887 36 18Z" fill="#3073C2"/>
<path d="M27.8398 16.4018C27.8398 21.7515 18 36 18 36C18 36 8.39983 22.1403 8.39983 16.4018C8.39983 10.1032 12.5702 6.16342 18.1198 6.16342C23.6695 6.16342 27.8398 10.1032 27.8398 16.4018Z" fill="white"/>
<path d="M20.9573 16.5783C20.9573 16.9439 20.8852 17.306 20.7453 17.6439C20.6054 17.9817 20.4002 18.2887 20.1417 18.5472C19.8831 18.8058 19.5761 19.0109 19.2383 19.1509C18.9005 19.2908 18.5384 19.3628 18.1727 19.3628C17.807 19.3628 17.4449 19.2908 17.1071 19.1509C16.7693 19.0109 16.4623 18.8058 16.2037 18.5472C15.9452 18.2887 15.7401 17.9817 15.6001 17.6439C15.4602 17.306 15.3882 16.9439 15.3882 16.5783H20.9573Z" fill="#3073C2"/>
</svg>
