<svg width="62" height="62" viewBox="0 0 62 62" fill="none" xmlns="http://www.w3.org/2000/svg">
<path d="M45 61H14.1046C12.0852 61 11.0755 61 10.6079 60.6007C10.2023 60.2542 9.98697 59.7344 10.0288 59.2026C10.0771 58.5896 10.791 57.8756 12.219 56.4477L40.5621 28.1046C41.8821 26.7845 42.5422 26.1245 43.3033 25.8772C43.9728 25.6597 44.6939 25.6597 45.3634 25.8772C46.1245 26.1245 46.7845 26.7845 48.1046 28.1046L61 41V45M45 61C50.6005 61 53.4008 61 55.5399 59.9101C57.4215 58.9513 58.9513 57.4215 59.9101 55.5399C61 53.4008 61 50.6005 61 45M45 61H17C11.3995 61 8.59921 61 6.46009 59.9101C4.57847 58.9513 3.04867 57.4215 2.08993 55.5399C1 53.4008 1 50.6005 1 45V17C1 11.3995 1 8.59921 2.08993 6.46009C3.04867 4.57847 4.57847 3.04867 6.46009 2.08993C8.59921 1 11.3995 1 17 1H45C50.6005 1 53.4008 1 55.5399 2.08993C57.4215 3.04867 58.9513 4.57847 59.9101 6.46009C61 8.59921 61 11.3995 61 17V45M26 19.3333C26 23.0152 23.0152 26 19.3333 26C15.6514 26 12.6667 23.0152 12.6667 19.3333C12.6667 15.6514 15.6514 12.6667 19.3333 12.6667C23.0152 12.6667 26 15.6514 26 19.3333Z" stroke="#444444" stroke-width="2" stroke-linecap="round" stroke-linejoin="round"/>
</svg>
